<svg width="36" height="41" viewBox="0 0 36 41" fill="none" xmlns="http://www.w3.org/2000/svg">
<path d="M32.7538 11.6764C29.1334 7.28157 22.3572 5.69401 17.3235 10.7277C14.2064 13.8254 10.0633 17.9685 10.0633 17.9685C8.94039 19.0914 9.11464 20.466 9.85034 21.3953C11.1088 20.1369 16.2006 15.0451 18.9304 12.3346C23.2865 7.95918 28.9591 8.57872 32.7538 11.6764Z" fill="url(#paint0_linear_0_290)"/>
<path d="M30.8958 17.3877C31.9025 19.6141 31.7283 22.4021 29.3663 24.764L19.415 34.6959L20.5351 35.8576L29.9859 26.429C32.9867 23.4282 32.677 19.769 30.8958 17.3877Z" fill="url(#paint1_linear_0_290)"/>
<path d="M20.5347 35.8575L20.828 36.1092L21.9867 37.0191L30.4695 28.4812C36.781 22.4601 36.1615 15.8388 32.754 11.6763C28.9594 8.57865 23.2868 7.95911 18.9307 12.3346C16.2008 15.045 11.109 20.1368 9.85059 21.3953C10.7218 22.4988 12.4062 22.9828 13.742 21.6469L20.0342 15.4322C24.0031 11.444 29.1723 13.6317 30.8954 17.3877C32.6766 19.769 32.9864 23.4281 29.9855 26.429L20.5347 35.8575Z" fill="url(#paint2_linear_0_290)"/>
<path d="M2.93896 29.3718C6.55937 33.786 13.3355 35.3736 18.3693 30.3399C21.4669 27.2228 25.6101 23.0797 25.6101 23.0797C26.733 21.9761 26.5587 20.6015 25.823 19.6722C24.5646 20.9307 19.4728 26.0225 16.7623 28.7329C12.4062 33.089 6.73362 32.4889 2.93896 29.3718Z" fill="url(#paint3_linear_0_290)"/>
<path d="M4.79742 23.6605C3.77132 21.434 3.96492 18.6655 6.3269 16.3035L16.2588 6.37161L15.2105 5.17126L5.688 14.6385C2.68712 17.62 2.9969 21.2985 4.79742 23.6605Z" fill="url(#paint4_linear_0_290)"/>
<path d="M15.2107 5.17124L14.8651 4.95828L13.626 4.14514L5.20417 12.5863C-1.08799 18.588 -0.48781 25.2287 2.939 29.3718C6.73365 32.4888 12.4063 33.089 16.7624 28.7329C19.4728 26.0224 24.5647 20.9306 25.8231 19.6722C24.9519 18.5687 23.2675 18.0847 21.9316 19.4012L15.6588 25.6352C11.6706 29.6235 6.52069 27.4164 4.7976 23.6605C2.99708 21.2985 2.68731 17.62 5.68818 14.6385L15.2107 5.17124Z" fill="url(#paint5_linear_0_290)"/>
<path fill-rule="evenodd" clip-rule="evenodd" d="M16.4444 6.71536C18.1552 6.71536 19.542 5.32849 19.542 3.61769C19.542 1.90689 18.1552 0.52002 16.4444 0.52002C14.7336 0.52002 13.3467 1.90689 13.3467 3.61769C13.3467 5.32849 14.7336 6.71536 16.4444 6.71536ZM16.463 5.31502C17.4561 5.31502 18.2612 4.50997 18.2612 3.51689C18.2612 2.52382 17.4561 1.71877 16.463 1.71877C15.4699 1.71877 14.6649 2.52382 14.6649 3.51689C14.6649 4.50997 15.4699 5.31502 16.463 5.31502Z" fill="url(#paint6_linear_0_290)"/>
<path fill-rule="evenodd" clip-rule="evenodd" d="M19.2007 40.5277C20.9115 40.5277 22.2984 39.1408 22.2984 37.43C22.2984 35.7192 20.9115 34.3323 19.2007 34.3323C17.4899 34.3323 16.103 35.7192 16.103 37.43C16.103 39.1408 17.4899 40.5277 19.2007 40.5277ZM19.2197 39.2472C20.2128 39.2472 21.0178 38.4422 21.0178 37.4491C21.0178 36.456 20.2128 35.651 19.2197 35.651C18.2266 35.651 17.4216 36.456 17.4216 37.4491C17.4216 38.4422 18.2266 39.2472 19.2197 39.2472Z" fill="url(#paint7_linear_0_290)"/>
<defs>
<linearGradient id="paint0_linear_0_290" x1="5.24138" y1="0.759809" x2="24.052" y2="13.2696" gradientUnits="userSpaceOnUse">
<stop stop-color="#00B8F1"/>
<stop offset="1" stop-color="#2B388F"/>
</linearGradient>
<linearGradient id="paint1_linear_0_290" x1="2.80413" y1="45.357" x2="30.5579" y2="17.7708" gradientUnits="userSpaceOnUse">
<stop stop-color="#00B8F1"/>
<stop offset="1" stop-color="#2B388F"/>
</linearGradient>
<linearGradient id="paint2_linear_0_290" x1="40.0857" y1="0.278632" x2="32.7305" y2="40.5747" gradientUnits="userSpaceOnUse">
<stop stop-color="#00B8F1"/>
<stop offset="1" stop-color="#2B388F"/>
</linearGradient>
<linearGradient id="paint3_linear_0_290" x1="30.4405" y1="40.3006" x2="11.6299" y2="27.7908" gradientUnits="userSpaceOnUse">
<stop stop-color="#F9A51A"/>
<stop offset="1" stop-color="#EE4028"/>
</linearGradient>
<linearGradient id="paint4_linear_0_290" x1="24.6924" y1="1.6407" x2="6.59276" y2="23.4126" gradientUnits="userSpaceOnUse">
<stop stop-color="#F9A51A"/>
<stop offset="1" stop-color="#EE4028"/>
</linearGradient>
<linearGradient id="paint5_linear_0_290" x1="-3.43544" y1="35.4777" x2="3.48793" y2="-2.45311" gradientUnits="userSpaceOnUse">
<stop stop-color="#FBAE17"/>
<stop offset="1" stop-color="#EE4023"/>
</linearGradient>
<linearGradient id="paint6_linear_0_290" x1="23.6166" y1="-0.662997" x2="18.278" y2="8.5961" gradientUnits="userSpaceOnUse">
<stop stop-color="#F9A51A"/>
<stop offset="1" stop-color="#EE4028"/>
</linearGradient>
<linearGradient id="paint7_linear_0_290" x1="8.07956" y1="43.7141" x2="16.8211" y2="31.2022" gradientUnits="userSpaceOnUse">
<stop stop-color="#00B8F1"/>
<stop offset="1" stop-color="#2B388F"/>
</linearGradient>
</defs>
</svg>
